<svg xmlns="http://www.w3.org/2000/svg" width="392" height="287" viewBox="0 0 392 287" version="1.1"><path d="M 69.148 13.902 C 55.155 18.765, 48.294 33.232, 54.400 45 C 57.993 51.925, 188.046 180.383, 195.210 184.084 C 207.481 190.422, 211.058 188.187, 249.500 150.164 C 350.695 50.072, 351.142 49.618, 353.589 44.500 C 362.562 25.737, 342.080 6.070, 323.066 15.190 C 319.818 16.747, 308.249 27.547, 283 52.588 C 250.068 85.250, 227.253 107.727, 210.770 123.748 L 204.040 130.289 186.770 112.805 C 177.272 103.189, 165 91.150, 159.500 86.050 C 154 80.951, 136 63.437, 119.500 47.131 C 83.807 11.859, 80.778 9.860, 69.148 13.902 M 66 142.449 C 60.684 145.232, 57.920 148.049, 55.159 153.500 C 52.249 159.245, 50.706 251.588, 53.386 259.656 C 60.244 280.305, 82.874 282.272, 95.839 263.346 C 99.030 258.688, 99.254 159.353, 96.088 153.210 C 90.183 141.755, 76.603 136.898, 66 142.449 M 325.759 141.366 C 320.048 143.491, 317.553 145.449, 314.301 150.359 L 311.323 154.855 310.662 177.589 C 309.350 222.662, 309.793 259.736, 311.680 262.785 C 323.399 281.722, 346.458 280.429, 353.946 260.416 C 356.902 252.514, 356.602 159.741, 353.601 154 C 348.008 143.299, 335.642 137.687, 325.759 141.366" stroke="none" fill="#102a8f" fill-rule="evenodd"/></svg>